<svg width="12" height="13" viewBox="0 0 12 13" fill="none" xmlns="http://www.w3.org/2000/svg">
<path d="M4.64472 2.70121V4.04987H1.46138V11.4675H8.46472V8.09585H9.73805V12.1418C9.73805 12.3207 9.67097 12.4922 9.55157 12.6186C9.43218 12.7451 9.27024 12.8162 9.10138 12.8162H0.824716C0.655862 12.8162 0.493923 12.7451 0.374525 12.6186C0.255126 12.4922 0.188049 12.3207 0.188049 12.1418V3.37554C0.188049 3.1967 0.255126 3.02518 0.374525 2.89872C0.493923 2.77226 0.655862 2.70121 0.824716 2.70121H4.64472ZM11.6481 0.678223V6.74719L9.23254 4.18946L5.41317 8.23543L4.51293 7.28193L8.33229 3.23595L5.91805 0.678223H11.6481Z" fill="white"/>
</svg>
