<svg width="17" height="20" viewBox="0 0 17 20" fill="none" xmlns="http://www.w3.org/2000/svg">
<path d="M13.9454 2.42187H9.84209V0.463745H17V8.29626H15.2105V3.80627L12.0458 7.26922C13.0782 8.75007 13.5578 10.6049 13.3874 12.4581C13.217 14.3113 12.4093 16.0244 11.128 17.2505C9.8467 18.4766 8.18746 19.1241 6.48626 19.0618C4.78507 18.9996 3.16907 18.2323 1.96547 16.9152C0.761879 15.5982 0.0606407 13.8299 0.00375238 11.9684C-0.0531359 10.1068 0.538577 8.29122 1.65908 6.88915C2.77958 5.48708 4.34512 4.60333 6.03871 4.41686C7.7323 4.23039 9.42737 4.75513 10.7807 5.88482L13.9454 2.42187Z" fill="url(#paint0_linear_3205_4592)"/>
<defs>
<linearGradient id="paint0_linear_3205_4592" x1="-1.6" y1="-3.22462" x2="19.3416" y2="-0.0354026" gradientUnits="userSpaceOnUse">
<stop stop-color="#9DFE00"/>
<stop offset="1" stop-color="#14D9E6"/>
</linearGradient>
</defs>
</svg>
