<svg width="16" height="21" viewBox="0 0 16 21" fill="none" xmlns="http://www.w3.org/2000/svg">
<path d="M7.34283 15.4714C5.49752 15.2227 3.81085 14.2392 2.62563 12.7206C1.44042 11.2021 0.845611 9.26249 0.962097 7.29612C1.07858 5.32975 1.89762 3.48414 3.25275 2.13441C4.60787 0.784674 6.39739 0.0321075 8.25758 0.0296652C10.1201 0.0281963 11.913 0.778925 13.271 2.12888C14.6291 3.47884 15.4501 5.32644 15.5667 7.29522C15.6833 9.26399 15.0868 11.2058 13.8987 12.7249C12.7106 14.2441 11.0204 15.2263 9.17234 15.4714V17.4808C12.7819 17.57 15.5756 18.1813 15.5756 18.9225C15.5756 19.7247 12.299 20.3758 8.25758 20.3758C4.21621 20.3758 0.939575 19.7247 0.939575 18.9225C0.939575 18.1813 3.73323 17.57 7.34283 17.4808V15.4714ZM8.25758 9.71831C8.7428 9.71831 9.20814 9.51415 9.55124 9.15076C9.89434 8.78736 10.0871 8.2945 10.0871 7.78058C10.0871 7.26666 9.89434 6.77379 9.55124 6.4104C9.20814 6.047 8.7428 5.84285 8.25758 5.84285C7.77237 5.84285 7.30703 6.047 6.96393 6.4104C6.62083 6.77379 6.42808 7.26666 6.42808 7.78058C6.42808 8.2945 6.62083 8.78736 6.96393 9.15076C7.30703 9.51415 7.77237 9.71831 8.25758 9.71831Z" fill="url(#paint0_linear_3205_4607)"/>
<defs>
<linearGradient id="paint0_linear_3205_4607" x1="-0.438446" y1="-4.00449" x2="17.7545" y2="-1.82279" gradientUnits="userSpaceOnUse">
<stop stop-color="#9DFE00"/>
<stop offset="1" stop-color="#14D9E6"/>
</linearGradient>
</defs>
</svg>
