<svg width="21" height="20" viewBox="0 0 21 20" fill="none" xmlns="http://www.w3.org/2000/svg">
<path d="M18.8042 5.37248L18.7967 5.36048C20.1932 3.05048 20.4887 1.51748 19.675 0.699981C18.8612 -0.117519 17.3192 0.181731 15.0017 1.58423C13.1796 0.580533 11.0807 0.195878 9.02105 0.488169C6.9614 0.78046 5.05242 1.73388 3.58148 3.20491C2.11053 4.67594 1.15723 6.58497 0.865053 8.64464C0.572881 10.7043 0.957656 12.8032 1.96146 14.6252C0.558209 16.9435 0.259709 18.481 1.07496 19.3C1.23367 19.4532 1.42193 19.5724 1.62825 19.6504C1.83456 19.7284 2.05461 19.7636 2.27496 19.7537C3.52389 19.6114 4.71618 19.1541 5.73996 18.4247L5.74821 18.43L5.76321 18.4202C7.58447 19.4184 9.68033 19.7991 11.7363 19.5051C13.7923 19.2111 15.6974 18.2583 17.1659 16.7896C18.6344 15.321 19.587 13.4157 19.8808 11.3597C20.1745 9.30369 19.7936 7.20787 18.7952 5.38673L18.8042 5.37248ZM18.6025 1.74998C18.6775 1.88348 18.6355 2.56073 17.8592 3.98798C17.4225 3.44553 16.9287 2.95168 16.3862 2.51498C17.8135 1.73873 18.487 1.69598 18.6025 1.74998ZM10.375 1.89248C11.6808 1.89369 12.9671 2.20999 14.1246 2.81452C15.2821 3.41905 16.2766 4.29397 17.0237 5.36498C15.5035 7.56672 13.7778 9.61917 11.8697 11.4947C9.99424 13.4026 7.94205 15.1283 5.74071 16.6487C4.32469 15.6625 3.2604 14.25 2.70276 12.617C2.14511 10.9839 2.12321 9.21555 2.64025 7.5692C3.1573 5.92285 4.18629 4.48448 5.57745 3.46347C6.96861 2.44246 8.64933 1.89209 10.375 1.89248ZM2.14746 18.25C2.07246 18.1165 2.11446 17.4392 2.89071 16.012C3.32721 16.5546 3.82108 17.0485 4.36371 17.485C2.93646 18.2612 2.26221 18.3032 2.14746 18.25ZM10.375 18.1075C9.28582 18.1061 8.20821 17.8844 7.20696 17.4557C9.24663 15.9829 11.1609 14.3438 12.9302 12.5552C14.7189 10.7861 16.358 8.87176 17.8307 6.83198C18.3576 8.06402 18.5703 9.40761 18.4498 10.7422C18.3293 12.0767 17.8793 13.3604 17.1402 14.4782C16.4011 15.5959 15.3961 16.5126 14.2153 17.146C13.0345 17.7795 11.7149 18.1099 10.375 18.1075Z" fill="#E3E3E3"/>
</svg>
