<svg width="21" height="20" viewBox="0 0 21 20" fill="none" xmlns="http://www.w3.org/2000/svg">
<path d="M20.4193 8.69904C20.4187 8.69858 20.4182 8.69797 20.4178 8.69751L12.2594 0.539398C11.9116 0.191498 11.4493 0 10.9575 0C10.4657 0 10.0033 0.191498 9.65545 0.539398L1.5013 8.69339C1.49856 8.69614 1.49566 8.69904 1.49306 8.70178C0.778951 9.42001 0.780172 10.5853 1.49657 11.3017C1.82387 11.6292 2.256 11.8187 2.71819 11.8387C2.73711 11.8405 2.75603 11.8414 2.77511 11.8414H3.10012V17.8452C3.10012 19.0334 4.06691 20 5.25512 20H8.44695C8.77059 20 9.03289 19.7375 9.03289 19.4141V14.707C9.03289 14.1649 9.47402 13.7239 10.0162 13.7239H11.8988C12.4409 13.7239 12.8819 14.1649 12.8819 14.707V19.4141C12.8819 19.7375 13.1442 20 13.4679 20H16.6597C17.848 20 18.8147 19.0334 18.8147 17.8452V11.8414H19.1162C19.6078 11.8414 20.0702 11.6499 20.4182 11.3019C21.1354 10.5844 21.1357 9.41696 20.4193 8.69904ZM19.5895 10.4733C19.463 10.5998 19.2949 10.6696 19.1162 10.6696H18.2287C17.9051 10.6696 17.6428 10.9319 17.6428 11.2555V17.8452C17.6428 18.3871 17.2018 18.8281 16.6597 18.8281H14.0538V14.707C14.0538 13.5188 13.0871 12.552 11.8988 12.552H10.0162C8.82781 12.552 7.86101 13.5188 7.86101 14.707V18.8281H5.25512C4.71312 18.8281 4.27199 18.3871 4.27199 17.8452V11.2555C4.27199 10.9319 4.00969 10.6696 3.68606 10.6696H2.81386C2.80471 10.6689 2.79571 10.6685 2.7864 10.6683C2.61184 10.6653 2.44811 10.596 2.32543 10.4732C2.0645 10.2122 2.0645 9.7876 2.32543 9.52652C2.32558 9.52652 2.32558 9.52637 2.32573 9.52621L2.32619 9.52576L10.4843 1.36795C10.6106 1.24146 10.7786 1.17188 10.9575 1.17188C11.1362 1.17188 11.3042 1.24146 11.4307 1.36795L19.5869 9.52408C19.5882 9.5253 19.5895 9.52652 19.5907 9.52774C19.8503 9.78912 19.8498 10.2129 19.5895 10.4733Z" fill="white"/>
</svg>
