<svg width="20" height="18" viewBox="0 0 20 18" fill="none" xmlns="http://www.w3.org/2000/svg">
<path d="M9.97637 17.3333C4.9242 17.3333 0.828857 13.6025 0.828857 8.99996C0.828857 4.39746 4.9242 0.666626 9.97637 0.666626C15.0285 0.666626 19.1239 4.39746 19.1239 8.99996C19.1239 13.6025 15.0285 17.3333 9.97637 17.3333ZM15.7896 12.2933V12.2058C15.7896 11.4375 15.7896 11.0866 15.1932 10.7758C15.0015 10.6768 14.8046 10.5864 14.6032 10.505C14.2675 10.3658 14.0452 10.275 13.7451 9.87496C13.7093 9.82746 13.6739 9.77968 13.639 9.73162C13.3234 9.29412 13.0957 8.97913 12.2285 9.10413C10.5225 9.35079 10.3962 9.62412 10.3212 10.0858L10.3093 10.1616C10.1987 10.8366 10.1785 11.0633 10.4877 11.3591C11.6449 12.465 12.3383 13.2625 12.5486 13.7291C12.6511 13.9566 12.9145 14.6458 12.7334 15.3275C13.8438 14.9246 14.8321 14.2854 15.6158 13.4633C15.7164 13.1516 15.7896 12.7633 15.7896 12.2933ZM9.97637 2.19413C7.85689 2.19413 5.94232 2.99913 4.583 4.29079C4.74491 4.39329 4.88578 4.53746 4.98274 4.73579C5.16935 5.11663 5.16935 5.50912 5.16935 5.85663C5.16935 6.12996 5.16935 6.38996 5.2654 6.57746C5.39712 6.83413 5.9661 6.94413 6.4683 7.03912C6.6485 7.07413 6.83328 7.10912 7.0016 7.15162C7.46446 7.26829 7.82304 7.64746 8.10936 7.95162C8.22828 8.07746 8.40482 8.26329 8.49356 8.30996C8.53929 8.27996 8.68657 8.13412 8.75883 7.89496C8.81555 7.71162 8.79908 7.54996 8.71767 7.46163C8.20541 6.91163 8.23377 5.85329 8.39202 5.46246C8.64083 4.84663 9.41837 4.89246 9.98734 4.92579C10.1996 4.93829 10.399 4.95079 10.549 4.93329C11.118 4.86829 11.2936 4.07913 11.4171 3.92496C11.6842 3.59163 12.502 3.08913 13.0088 2.77913C12.0542 2.39245 11.021 2.19313 9.97637 2.19413Z" fill="url(#paint0_linear_3205_4598)"/>
<defs>
<linearGradient id="paint0_linear_3205_4598" x1="-0.893026" y1="-2.63797" x2="21.4199" y2="1.44363" gradientUnits="userSpaceOnUse">
<stop stop-color="#9DFE00"/>
<stop offset="1" stop-color="#14D9E6"/>
</linearGradient>
</defs>
</svg>
