<svg width="18" height="20" viewBox="0 0 18 20" fill="none" xmlns="http://www.w3.org/2000/svg">
<path d="M3.49985 1.9364C4.98406 0.699222 6.8299 0.0265192 8.73175 0.0296741C10.7107 0.0296741 12.5295 0.742758 13.9636 1.9364L15.3168 0.528639L16.6336 1.89861L15.2805 3.30637C16.4696 4.85049 17.1162 6.77084 17.1132 8.74945V9.71832H0.350281V8.74945C0.350281 6.69062 1.0357 4.79842 2.18303 3.30637L0.829887 1.89958L2.14671 0.529608L3.49985 1.93737V1.9364ZM0.350281 11.656H17.1132V18.4381C17.1132 18.6951 17.0151 18.9415 16.8405 19.1232C16.6658 19.3049 16.4289 19.407 16.1819 19.407H1.28155C1.03457 19.407 0.797692 19.3049 0.623045 19.1232C0.448397 18.9415 0.350281 18.6951 0.350281 18.4381V11.656ZM5.93793 6.81172C6.18491 6.81172 6.42179 6.70965 6.59644 6.52795C6.77108 6.34625 6.8692 6.09982 6.8692 5.84286C6.8692 5.5859 6.77108 5.33947 6.59644 5.15777C6.42179 4.97607 6.18491 4.87399 5.93793 4.87399C5.69094 4.87399 5.45406 4.97607 5.27942 5.15777C5.10477 5.33947 5.00665 5.5859 5.00665 5.84286C5.00665 6.09982 5.10477 6.34625 5.27942 6.52795C5.45406 6.70965 5.69094 6.81172 5.93793 6.81172ZM11.5256 6.81172C11.7726 6.81172 12.0094 6.70965 12.1841 6.52795C12.3587 6.34625 12.4568 6.09982 12.4568 5.84286C12.4568 5.5859 12.3587 5.33947 12.1841 5.15777C12.0094 4.97607 11.7726 4.87399 11.5256 4.87399C11.2786 4.87399 11.0417 4.97607 10.8671 5.15777C10.6924 5.33947 10.5943 5.5859 10.5943 5.84286C10.5943 6.09982 10.6924 6.34625 10.8671 6.52795C11.0417 6.70965 11.2786 6.81172 11.5256 6.81172Z" fill="url(#paint0_linear_3205_4586)"/>
<defs>
<linearGradient id="paint0_linear_3205_4586" x1="-1.22741" y1="-3.81239" x2="19.471" y2="-0.828502" gradientUnits="userSpaceOnUse">
<stop stop-color="#9DFE00"/>
<stop offset="1" stop-color="#14D9E6"/>
</linearGradient>
</defs>
</svg>
